<svg xmlns="http://www.w3.org/2000/svg" viewBox="0 0 512 512" width="512" height="512">
  <defs>
    <linearGradient id="bg" x1="0%" y1="100%" x2="100%" y2="0%">
      <stop offset="0%" stop-color="#00ED64"/>
      <stop offset="100%" stop-color="#512BD4"/>
    </linearGradient>
  </defs>

  <!-- Background -->
  <rect x="16" y="16" width="480" height="480" rx="80" ry="80" fill="url(#bg)"/>

  <!-- MongoDB leaf outline -->
  <path d="
    M 256 88
    C 256 88, 212 152, 192 216
    C 172 280, 164 320, 164 348
    C 164 392, 188 420, 228 436
    C 244 442, 252 444, 256 446
    C 260 444, 268 442, 284 436
    C 324 420, 348 392, 348 348
    C 348 320, 340 280, 320 216
    C 300 152, 256 88, 256 88 Z
  " fill="none" stroke="white" stroke-width="32" stroke-linecap="round" stroke-linejoin="round" opacity="0.95"/>

  <!-- Stem -->
  <line x1="256" y1="280" x2="256" y2="446"
        stroke="white" stroke-width="24" stroke-linecap="round" opacity="0.5"/>
</svg>
